<svg xmlns="http://www.w3.org/2000/svg" xmlns:xlink="http://www.w3.org/1999/xlink" width="240" zoomAndPan="magnify" viewBox="0 0 180 179.999997" height="240" preserveAspectRatio="xMidYMid meet" version="1.0"><path fill="#0084fa" d="M 178.703125 81.589844 L 111.9375 111.945312 L 81.59375 178.699219 C 81.226562 179.503906 80.753906 180.238281 80.171875 180.902344 C 79.585938 181.570312 78.921875 182.136719 78.167969 182.601562 C 77.417969 183.070312 76.617188 183.421875 75.761719 183.652344 C 74.910156 183.882812 74.039062 183.984375 73.15625 183.957031 C 72.269531 183.929688 71.410156 183.777344 70.570312 183.496094 C 69.730469 183.214844 68.953125 182.820312 68.230469 182.308594 C 67.507812 181.796875 66.875 181.191406 66.332031 180.492188 C 65.789062 179.792969 65.359375 179.03125 65.042969 178.207031 L 1.5625 13.164062 C 1.265625 12.355469 1.089844 11.519531 1.03125 10.660156 C 0.972656 9.796875 1.039062 8.949219 1.222656 8.105469 C 1.410156 7.261719 1.710938 6.464844 2.125 5.707031 C 2.539062 4.949219 3.050781 4.269531 3.660156 3.660156 C 4.269531 3.046875 4.953125 2.535156 5.710938 2.121094 C 6.46875 1.707031 7.265625 1.410156 8.109375 1.222656 C 8.953125 1.039062 9.804688 0.976562 10.664062 1.03125 C 11.523438 1.089844 12.359375 1.269531 13.167969 1.566406 L 178.210938 65.042969 C 179.027344 65.371094 179.777344 65.808594 180.464844 66.355469 C 181.152344 66.902344 181.746094 67.535156 182.25 68.253906 C 182.75 68.976562 183.140625 69.753906 183.417969 70.585938 C 183.691406 71.421875 183.84375 72.277344 183.867188 73.15625 C 183.894531 74.03125 183.796875 74.898438 183.570312 75.746094 C 183.34375 76.59375 183 77.394531 182.542969 78.140625 C 182.082031 78.890625 181.527344 79.558594 180.875 80.144531 C 180.21875 80.730469 179.496094 81.214844 178.703125 81.589844 Z M 178.703125 81.589844 " fill-opacity="1" fill-rule="nonzero"/></svg>
